<svg width="24" height="24" viewBox="0 0 24 24" fill="none" xmlns="http://www.w3.org/2000/svg">
<path opacity="0.3" d="M18 8C19.6569 8 21 9.34315 21 11C21 12.6569 19.6569 14 18 14C16.3431 14 15 12.6569 15 11C15 9.34315 16.3431 8 18 8ZM9 3C11.2091 3 13 4.79086 13 7C13 9.20914 11.2091 11 9 11C6.79086 11 5 9.20914 5 7C5 4.79086 6.79086 3 9 3Z" fill="#131212"/>
<path d="M8.98339 13C13.7712 13 17.705 15.2934 17.998 20.2002C18.0097 20.3959 17.9977 20.9998 17.2471 21H0.727535C0.476745 21 -0.020141 20.4592 0.000972484 20.1992C0.388585 15.4265 4.26197 13 8.98339 13ZM17.6016 15.001C21.0079 15.0383 23.7887 16.7607 23.998 20.4004C24.0064 20.5474 23.998 20.9999 23.4561 21H19.5996C19.5996 18.7492 18.8565 16.6721 17.6016 15.001Z" fill="#131212"/>
</svg>
