<svg width="24" height="24" viewBox="0 0 24 24" fill="none" xmlns="http://www.w3.org/2000/svg">
<rect x="4" y="4" width="7" height="7" rx="1.5" fill="#131212"/>
<path opacity="0.3" d="M9.5 13C10.3284 13 11 13.6716 11 14.5V18.5C11 19.3284 10.3284 20 9.5 20H5.5C4.67157 20 4 19.3284 4 18.5V14.5C4 13.6716 4.67157 13 5.5 13H9.5ZM18.5 13C19.3284 13 20 13.6716 20 14.5V18.5C20 19.3284 19.3284 20 18.5 20H14.5C13.6716 20 13 19.3284 13 18.5V14.5C13 13.6716 13.6716 13 14.5 13H18.5ZM18.5 4C19.3284 4 20 4.67157 20 5.5V9.5C20 10.3284 19.3284 11 18.5 11H14.5C13.6716 11 13 10.3284 13 9.5V5.5C13 4.67157 13.6716 4 14.5 4H18.5Z" fill="#131212"/>
</svg>
